<?xml version="1.0" standalone="no"?>
<!DOCTYPE svg PUBLIC "-//W3C//DTD SVG 20010904//EN"
 "http://www.w3.org/TR/2001/REC-SVG-20010904/DTD/svg10.dtd">
<svg version="1.0" xmlns="http://www.w3.org/2000/svg"
 width="410.000000pt" height="399.000000pt" viewBox="0 0 410.000000 399.000000"
 preserveAspectRatio="xMidYMid meet">

<g transform="translate(0.000000,399.000000) scale(0.100000,-0.100000)"
fill="#000000" stroke="none">
<path d="M2048 2889 l-3 -1093 -1017 -500 c-559 -276 -1013 -504 -1010 -507
10 -10 2015 -780 2032 -781 11 -1 1700 645 2013 769 l37 15 -2 1059 -3 1060
-1010 530 c-555 292 -1016 533 -1022 536 -10 4 -13 -220 -15 -1088z m267 707
c11 -7 47 -28 80 -46 61 -33 112 -61 188 -103 23 -14 67 -38 97 -54 30 -17 80
-45 110 -62 30 -18 63 -35 73 -38 9 -3 19 -15 22 -27 3 -11 52 -230 110 -486
58 -256 108 -472 111 -480 3 -8 15 13 28 50 12 36 73 206 136 377 l113 313
246 -126 c135 -69 247 -127 249 -128 4 -4 -518 -1359 -527 -1369 -6 -6 -317
141 -541 256 -22 11 -43 82 -272 947 -136 514 -250 947 -253 963 -7 30 1 34
30 13z"/>
<path d="M1833 3582 c-6 -4 -118 -410 -248 -902 -130 -492 -243 -918 -251
-945 l-14 -50 -275 -134 c-151 -74 -275 -137 -275 -141 0 -4 3 -9 6 -12 4 -5
547 254 563 268 5 4 511 1917 508 1921 -2 1 -8 -1 -14 -5z"/>
<path d="M743 2990 c12 -47 256 -705 257 -690 0 16 -248 701 -257 710 -3 3 -3
-6 0 -20z"/>
</g>
</svg>
